# File created by Blade
# Date/Time:  Wed Apr 08 17:39:41 2015
#---------------------------------------------------------
:version 1.10
:name HOM
:units
  mass 1.0
  length 1.000000
  angle deg
:documentation
     Acclaim Skeleton File
:root
   axis xyz
   order TX TY TZ RX RY RZ
   position 0.000000 0.000000 0.000000
   orientation 0 0 0
:bonedata
   begin
      id 1
      name Spine_dum
      direction 0.000000 1.000000 0.000000
      length 5.893853
      axis 0.0 0.0 0.0 xyz
   end
   begin
      id 2
      name LeftUpLeg_dum
      direction 1.000000 0.000000 0.000000
      length 3.697939
      axis 0.0 0.0 0.0 xyz
   end
   begin
      id 3
      name RightUpLeg_dum
      direction -1.000000 0.000000 0.000000
      length 3.697939
      axis 0.0 0.0 0.0 xyz
   end
   begin
      id 4
      name Spine
      direction 0.000000 1.000000 0.000000
      length 0.000000
      axis 0.0 0.0 0.0 xyz
      dof rx ry rz
   end
   begin
      id 5
      name Spine_dum1
      direction 0.000000 1.000000 0.000000
      length 16.447146
      axis 0.0 0.0 0.0 xyz
   end
   begin
      id 6
      name Spine_dum2
      direction 0.000000 1.000000 0.000000
      length 10.900383
      axis 0.0 0.0 0.0 xyz
   end
   begin
      id 7
      name Spine_dum3
      direction 0.000000 1.000000 0.000000
      length 10.900383
      axis 0.0 0.0 0.0 xyz
   end
   begin
      id 8
      name Head
      direction 0.000000 1.000000 0.000000
      length 4.527550
      axis 0.0 0.0 0.0 xyz
      dof rx ry rz
   end
   begin
      id 9
      name LeftShoulder
      direction 1.000000 0.000000 0.000000
      length 8.219464
      axis 0.0 0.0 -90.0 xyz
      dof rx ry rz
   end
   begin
      id 10
      name LeftArm
      direction 1.000000 0.000000 0.000000
      length 11.094937
      axis 0.0 0.0 -90.0 xyz
      dof rx ry rz
   end
   begin
      id 11
      name LeftForeArm
      direction 1.000000 0.000000 0.000000
      length 9.103875
      axis 0.0 0.0 -90.0 xyz
      dof ry rz rx
   end
   begin
      id 12
      name LeftHand
      direction 0.000000 0.000000 0.000000
      length 0.000000
      axis 0.0 0.0 -90.0 xyz
      dof rx ry rz
   end
   begin
      id 13
      name LeftHand_dum1
      direction 0.000000 0.000000 0.000000
      length 0.000000
      axis 0.0 0.0 -90.0 xyz
   end
   begin
      id 14
      name LeftHand_dum2
      direction 1.000000 0.000000 0.000000
      length 3.937000
      axis 0.0 0.0 -90.0 xyz
   end
   begin
      id 15
      name LeftHandThumb1
      direction 0.000000 0.000000 1.000000
      length 3.937000
      axis 0.0 0.0 -90.0 xyz
      dof rx rz ry
   end
   begin
      id 16
      name RightShoulder
      direction -1.000000 0.000000 0.000000
      length 8.219464
      axis 0.0 0.0 90.0 xyz
      dof rx ry rz
   end
   begin
      id 17
      name RightArm
      direction -1.000000 0.000000 0.000000
      length 11.094937
      axis 0.0 0.0 90.0 xyz
      dof rx ry rz
   end
   begin
      id 18
      name RightForeArm
      direction -1.000000 0.000000 0.000000
      length 9.103875
      axis 0.0 0.0 90.0 xyz
      dof ry rz rx
   end
   begin
      id 19
      name RightHand
      direction 0.000000 0.000000 0.000000
      length 0.000000
      axis 0.0 0.0 90.0 xyz
      dof rx ry rz
   end
   begin
      id 20
      name RightHand_dum1
      direction 0.000000 0.000000 0.000000
      length 0.000000
      axis 0.0 0.0 90.0 xyz
   end
   begin
      id 21
      name RightHand_dum2
      direction -1.000000 0.000000 0.000000
      length 3.937000
      axis 0.0 0.0 90.0 xyz
   end
   begin
      id 22
      name RightHandThumb1
      direction 0.000000 0.000000 1.000000
      length 3.937000
      axis 0.0 0.0 90.0 xyz
      dof rx rz ry
   end
   begin
      id 23
      name LeftUpLeg
      direction 0.000000 -1.000000 0.000000
      length 16.181467
      axis 0.0 0.0 0.0 xyz
      dof rx ry rz
   end
   begin
      id 24
      name LeftLeg
      direction 0.000000 -1.000000 0.000000
      length 16.501392
      axis 0.0 0.0 0.0 xyz
      dof rx ry rz
   end
   begin
      id 25
      name LeftFoot
      direction 0.000000 -0.258819 0.965926
      length 6.408245
      axis 15.0 0.0 0.0 xyz
      dof rx ry rz
   end
   begin
      id 26
      name LeftToeBase
      direction 0.000000 0.000000 1.000000
      length 2.952750
      axis 0.0 0.0 0.0 xyz
      dof rx ry rz
   end
   begin
      id 27
      name RightUpLeg
      direction 0.000000 -1.000000 0.000000
      length 16.181467
      axis 0.0 0.0 0.0 xyz
      dof rx ry rz
   end
   begin
      id 28
      name RightLeg
      direction 0.000000 -1.000000 0.000000
      length 16.501392
      axis 0.0 0.0 0.0 xyz
      dof rx ry rz
   end
   begin
      id 29
      name RightFoot
      direction 0.000000 -0.258819 0.965926
      length 6.408245
      axis 15.0 0.0 0.0 xyz
      dof rx ry rz
   end
   begin
      id 30
      name RightToeBase
      direction 0.000000 0.000000 1.000000
      length 2.952750
      axis 0.0 0.0 0.0 xyz
      dof rx ry rz
   end
:hierarchy
   begin
      root Spine_dum LeftUpLeg_dum RightUpLeg_dum
      Spine_dum Spine
      LeftUpLeg_dum LeftUpLeg
      RightUpLeg_dum RightUpLeg
      Spine Spine_dum1 Spine_dum2 Spine_dum3
      Spine_dum1 Head
      Spine_dum2 LeftShoulder
      Spine_dum3 RightShoulder
      LeftShoulder LeftArm
      LeftArm LeftForeArm
      LeftForeArm LeftHand
      LeftHand LeftHand_dum1 LeftHand_dum2
      LeftHand_dum1 LeftHandThumb1
      RightShoulder RightArm
      RightArm RightForeArm
      RightForeArm RightHand
      RightHand RightHand_dum1 RightHand_dum2
      RightHand_dum1 RightHandThumb1
      LeftUpLeg LeftLeg
      LeftLeg LeftFoot
      LeftFoot LeftToeBase
      RightUpLeg RightLeg
      RightLeg RightFoot
      RightFoot RightToeBase
   end

# File created by Blade
# Date/Time:  Wed Apr 08 17:39:35 2015
# Frame Rate: 120.000 fps
#------------------------------------------------------
:FULLY-SPECIFIED
:DEGREES
393
root 7.163704 35.931034 3.450341 15.706286 -49.846883 -355.344141
Spine -23.413934 -5.746056 -4.218423
Head 40.890247 22.563278 13.730337
LeftShoulder -11.064960 22.934247 12.665002
LeftArm 16.601098 12.156506 -79.042683
LeftForeArm 19.059251 0.000000 24.692128
LeftHand -12.479629 -0.000000 -10.897634
LeftHandThumb1 -26.253704 0.000000 33.147579
RightShoulder -39.782609 -51.361944 18.640982
RightArm 51.521282 -17.422639 50.979544
RightForeArm 3.230884 0.000000 22.837335
RightHand 0.823960 -0.000000 19.777709
RightHandThumb1 -24.326973 -0.000000 -32.862282
LeftUpLeg -22.642320 -2.015717 -9.116001
LeftLeg 17.333641 -0.000000 -0.000000
LeftFoot -14.642611 0.696441 -5.179397
LeftToeBase 11.700037 -0.000000 -0.000000
RightUpLeg -77.434809 -1.785959 21.067909
RightLeg 70.524767 -0.000000 -0.000000
RightFoot 10.283625 -1.764973 44.124017
RightToeBase 23.996455 -0.000000 -0.000000
394
root 7.165700 35.933708 3.449879 15.696375 -49.814009 -355.395248
Spine -23.331481 -5.793227 -4.174285
Head 40.971838 22.646600 13.799377
LeftShoulder -11.073247 22.988894 12.630126
LeftArm 16.608961 12.240003 -79.025160
LeftForeArm 19.148361 -0.000000 24.764136
LeftHand -12.469208 -0.000000 -10.926597
LeftHandThumb1 -26.253704 0.000000 33.147579
RightShoulder -39.728373 -51.380342 18.620383
RightArm 51.566167 -17.411367 50.958823
RightForeArm 2.314695 -0.000000 23.096633
RightHand 0.977462 0.000000 18.440014
RightHandThumb1 -24.326973 -0.000000 -32.862282
LeftUpLeg -22.613757 -2.003340 -9.078887
LeftLeg 17.362829 -0.000000 -0.000000
LeftFoot -14.631722 0.651023 -5.201303
LeftToeBase 11.686109 -0.000000 -0.000000
RightUpLeg -77.628161 -1.663704 20.722935
RightLeg 70.433692 -0.000000 -0.000000
RightFoot 9.469275 -2.927389 42.932656
RightToeBase 22.914552 -0.000000 -0.000000
395
root 7.167387 35.935746 3.447519 15.698959 -49.743679 -355.456734
Spine -23.260430 -5.879689 -4.105226
Head 41.060296 22.710495 13.824507
LeftShoulder -11.066960 23.042974 12.606662
LeftArm 16.615076 12.355370 -79.004166
LeftForeArm 19.217211 -0.000000 24.798994
LeftHand -12.431726 -0.000000 -10.922787
LeftHandThumb1 -26.253704 0.000000 33.147579
RightShoulder -39.672835 -51.408326 18.576935
RightArm 51.658722 -17.372270 50.957245
RightForeArm 1.348195 -0.000000 23.272438
RightHand 1.307088 -0.000000 17.259062
RightHandThumb1 -24.326973 -0.000000 -32.862282
LeftUpLeg -22.593356 -1.949954 -9.043303
LeftLeg 17.399821 -0.000000 -0.000000
LeftFoot -14.611928 0.534826 -5.167251
LeftToeBase 11.658791 -0.000000 -0.000000
RightUpLeg -77.843618 -1.599465 20.428857
RightLeg 70.383178 -0.000000 -0.000000
RightFoot 8.458897 -4.373721 41.702286
RightToeBase 20.134768 -0.000000 -0.000000
396
root 7.168240 35.938704 3.445669 15.708734 -49.668248 -355.531662
Spine -23.189124 -5.952182 -4.029305
Head 41.158141 22.758371 13.871203
LeftShoulder -11.054548 23.091017 12.582213
LeftArm 16.635802 12.459703 -78.983955
LeftForeArm 19.327765 -0.000000 24.793958
LeftHand -12.465095 0.000000 -10.856618
LeftHandThumb1 -26.253704 0.000000 33.147579
RightShoulder -39.640715 -51.433730 18.521454
RightArm 51.772087 -17.407500 50.904409
RightForeArm 0.266176 -0.000000 23.498118
RightHand 1.437339 -0.000000 16.026475
RightHandThumb1 -24.326973 -0.000000 -32.862282
LeftUpLeg -22.575134 -1.934846 -8.983873
LeftLeg 17.450600 -0.000000 -0.000000
LeftFoot -14.512602 0.355121 -5.393742
LeftToeBase 11.340239 -0.000000 -0.000000
RightUpLeg -78.059548 -1.549623 20.164103
RightLeg 70.348661 -0.000000 -0.000000
RightFoot 7.430444 -6.126184 40.268278
RightToeBase 17.651034 -0.000000 -0.000000
397
root 7.169578 35.943603 3.441826 15.747287 -49.560405 -355.622380
Spine -23.134620 -6.042813 -3.935678
Head 41.272635 22.782196 13.922166
LeftShoulder -11.041658 23.125993 12.545597
LeftArm 16.657547 12.620820 -78.921071
LeftForeArm 19.361406 -0.000000 24.788997
LeftHand -12.500114 -0.000000 -10.833580
LeftHandThumb1 -26.253704 0.000000 33.147579
RightShoulder -39.635058 -51.447094 18.485512
RightArm 51.927982 -17.499317 50.749619
RightForeArm -1.012933 -0.000000 23.707086
RightHand 1.592208 -0.000000 14.746480
RightHandThumb1 -24.326973 -0.000000 -32.862282
LeftUpLeg -22.573736 -1.891140 -8.923207
LeftLeg 17.491165 -0.000000 -0.000000
LeftFoot -14.576310 0.306556 -5.189111
LeftToeBase 11.695625 -0.000000 -0.000000
RightUpLeg -78.297671 -1.544516 19.969429
RightLeg 70.307393 -0.000000 -0.000000
RightFoot 6.438942 -8.135044 38.481762
RightToeBase 15.552235 -0.000000 -0.000000
398
root 7.171270 35.951409 3.435533 15.866378 -49.428762 -355.751921
Spine -23.142192 -6.164165 -3.788823
Head 41.412859 22.802305 13.958760
LeftShoulder -11.055662 23.153409 12.488193
LeftArm 16.665179 12.763850 -78.867136
LeftForeArm 19.400620 -0.000000 24.756924
LeftHand -12.589617 -0.000000 -10.884788
LeftHandThumb1 -26.253704 0.000000 33.147579
RightShoulder -39.611608 -51.474723 18.430534
RightArm 52.090760 -17.596813 50.557101
RightForeArm -2.045848 -0.000000 23.897976
RightHand 1.719236 0.000000 13.675040
RightHandThumb1 -24.326973 -0.000000 -32.862282
LeftUpLeg -22.626371 -1.838462 -8.831313
LeftLeg 17.532523 -0.000000 -0.000000
LeftFoot -14.536800 0.117808 -5.175254
LeftToeBase 11.707351 -0.000000 -0.000000
RightUpLeg -78.561776 -1.541120 19.798981
RightLeg 70.226743 -0.000000 -0.000000
RightFoot 5.666265 -10.223788 36.612083
RightToeBase 13.018993 -0.000000 -0.000000
399
root 7.173339 35.962026 3.422004 16.127273 -49.228117 -355.942482
Spine -23.255878 -6.298261 -3.596609
Head 41.550016 22.750971 13.993666
LeftShoulder -11.045883 23.198639 12.432715
LeftArm 16.714886 12.892913 -78.801277
LeftForeArm 19.484611 -0.000000 24.685720
LeftHand -12.496287 0.000000 -10.908812
LeftHandThumb1 -26.253704 0.000000 33.147579
RightShoulder -39.699913 -51.493026 18.462313
RightArm 52.274360 -17.702243 50.285392
RightForeArm -3.020553 -0.000000 24.111893
RightHand 1.640275 -0.000000 12.907282
RightHandThumb1 -24.326973 -0.000000 -32.862282
LeftUpLeg -22.813311 -1.839922 -8.673561
LeftLeg 17.630024 -0.000000 -0.000000
LeftFoot -14.487779 -0.080492 -5.186066
LeftToeBase 11.708085 -0.000000 -0.000000
RightUpLeg -78.920512 -1.550954 19.711501
RightLeg 70.152245 -0.000000 -0.000000
RightFoot 4.920516 -12.395020 33.749896
RightToeBase 11.230908 -0.000000 -0.000000
400
root 7.177006 35.970796 3.415811 16.287885 -49.124715 -356.081186
Spine -23.309465 -6.333672 -3.468347
Head 41.676064 22.689118 14.011781
LeftShoulder -11.035458 23.222360 12.390283
LeftArm 16.766240 13.000967 -78.757724
LeftForeArm 19.552467 -0.000000 24.588479
LeftHand -12.479692 0.000000 -11.015304
LeftHandThumb1 -26.253704 0.000000 33.147579
RightShoulder -39.727461 -51.494362 18.438718
RightArm 52.404079 -17.783374 50.096768
RightForeArm -4.106553 0.000000 24.286968
RightHand 1.597722 -0.000000 12.154637
RightHandThumb1 -24.326973 -0.000000 -32.862282
LeftUpLeg -22.910676 -1.796841 -8.572099
LeftLeg 17.686012 -0.000000 -0.000000
LeftFoot -14.413827 -0.261239 -5.410443
LeftToeBase 11.622928 -0.000000 -0.000000
RightUpLeg -79.162818 -1.513587 19.510334
RightLeg 69.996795 -0.000000 -0.000000
RightFoot 4.451100 -14.438242 32.156178
RightToeBase 6.700932 -0.000000 -0.000000
401
root 7.180189 35.981390 3.408396 16.503174 -49.012740 -356.245424
Spine -23.409952 -6.359391 -3.320308
Head 41.808621 22.585670 14.027529
LeftShoulder -11.011686 23.248374 12.346861
LeftArm 16.812524 13.087140 -78.723513
LeftForeArm 19.602760 -0.000000 24.468081
LeftHand -12.463739 -0.000000 -11.074899
LeftHandThumb1 -26.253704 0.000000 33.147579
RightShoulder -39.802849 -51.517867 18.449334
RightArm 52.550582 -17.845444 49.913379
RightForeArm -5.255289 -0.000000 24.469919
RightHand 1.607125 -0.000000 11.599177
RightHandThumb1 -24.326973 -0.000000 -32.862282
LeftUpLeg -23.055938 -1.761277 -8.454748
LeftLeg 17.760351 -0.000000 -0.000000
LeftFoot -14.340095 -0.460857 -5.477084
LeftToeBase 11.544253 -0.000000 -0.000000
RightUpLeg -79.436353 -1.473477 19.325587
RightLeg 69.879078 -0.000000 -0.000000
RightFoot 4.023587 -16.363970 30.473885
RightToeBase -0.460942 -0.000000 0.000000
402
root 7.185955 35.990367 3.406245 16.618462 -48.990169 -356.341453
Spine -23.452615 -6.308372 -3.258914
Head 41.919712 22.482940 14.065185
LeftShoulder -10.987914 23.255144 12.322616
LeftArm 16.839359 13.122382 -78.724429
LeftForeArm 19.638945 -0.000000 24.360010
LeftHand -12.552462 -0.000000 -11.220863
LeftHandThumb1 -26.253704 0.000000 33.147579
RightShoulder -39.837142 -51.509487 18.454281
RightArm 52.657993 -17.837836 49.763033
RightForeArm -6.690426 -0.000000 24.615394
RightHand 1.590795 -0.000000 11.589976
RightHandThumb1 -24.326973 -0.000000 -32.862282
LeftUpLeg -23.118916 -1.685461 -8.410809
LeftLeg 17.772213 -0.000000 -0.000000
LeftFoot -14.290167 -0.550743 -5.480508
LeftToeBase 11.537315 -0.000000 -0.000000
RightUpLeg -79.660978 -1.390242 19.070706
RightLeg 69.776011 -0.000000 -0.000000
RightFoot 3.774480 -18.177317 28.425934
RightToeBase -3.736365 -0.000000 0.000000
403
root 7.189328 35.998451 3.400772 16.758914 -48.946204 -356.452062
Spine -23.511107 -6.269630 -3.201606
Head 42.010189 22.330359 14.092689
LeftShoulder -10.958442 23.247125 12.338565
LeftArm 16.859010 13.106859 -78.774332
LeftForeArm 19.692404 -0.000000 24.202771
LeftHand -12.532264 -0.000000 -11.296940
LeftHandThumb1 -26.253704 0.000000 33.147579
RightShoulder -39.891955 -51.522855 18.481666
RightArm 52.788520 -17.905819 49.550823
RightForeArm -7.585690 -0.000000 24.752276
RightHand 1.688052 -0.000000 11.412082
RightHandThumb1 -24.326973 -0.000000 -32.862282
LeftUpLeg -23.207930 -1.736776 -8.297274
LeftLeg 17.803299 -0.000000 -0.000000
LeftFoot -14.246903 -0.644748 -5.615147
LeftToeBase 11.580409 -0.000000 -0.000000
RightUpLeg -79.905212 -1.303452 18.792255
RightLeg 69.738060 -0.000000 -0.000000
RightFoot 3.619556 -19.906702 25.991984
RightToeBase -6.354178 -0.000000 0.000000
